<svg width="1024" height="720" viewBox="0 0 1024 720" fill="none" xmlns="http://www.w3.org/2000/svg">
<mask id="path-1-inside-1" fill="white">
<rect y="25.1748" width="85.3333" height="669.65" rx="5"/>
</mask>
<rect y="25.1748" width="85.3333" height="669.65" rx="5" fill="#E1BF92" stroke="black" stroke-width="16" mask="url(#path-1-inside-1)"/>
<mask id="path-2-inside-2" fill="white">
<rect x="938.667" y="25.1748" width="85.3333" height="669.65" rx="5"/>
</mask>
<rect x="938.667" y="25.1748" width="85.3333" height="669.65" rx="5" fill="#E1BF92" stroke="black" stroke-width="16" mask="url(#path-2-inside-2)"/>
<rect x="85.3333" y="85.5944" width="853.333" height="543.776" fill="#E6C090"/>
<rect x="29.4444" y="1" width="26.4444" height="23.1748" rx="3" fill="#55342B" stroke="black" stroke-width="2"/>
<rect x="968.111" y="1" width="26.4445" height="23.1748" rx="3" fill="#55342B" stroke="black" stroke-width="2"/>
<rect x="968.111" y="695.825" width="26.4445" height="23.1748" rx="3" fill="#55342B" stroke="black" stroke-width="2"/>
<rect x="29.4444" y="695.825" width="26.4444" height="23.1748" rx="3" fill="#55342B" stroke="black" stroke-width="2"/>
<path d="M285.257 160.22L286.869 157.113L286.111 156.72H285.257V160.22ZM338.286 187.732L341.432 186.199L340.925 185.159L339.898 184.626L338.286 187.732ZM358.4 229.001L355.254 230.534L355.64 231.326L356.355 231.841L358.4 229.001ZM412.343 267.842L410.298 270.682L411.214 271.342H412.343V267.842ZM484.571 267.842V271.342H485L485.416 271.239L484.571 267.842ZM565.943 247.612L566.787 251.009L567.62 250.802L568.263 250.233L565.943 247.612ZM611.657 207.153L610.117 204.01L609.692 204.218L609.337 204.532L611.657 207.153ZM671.086 178.022L672.367 174.765L670.931 174.2L669.545 174.879L671.086 178.022ZM745.143 207.153L748.101 205.281L747.489 204.315L746.424 203.896L745.143 207.153ZM783.543 267.842H787.043V266.828L786.501 265.971L783.543 267.842ZM783.543 326.913L785.863 329.534L787.043 328.489V326.913H783.543ZM734.171 370.609L735.716 373.75L736.138 373.542L736.491 373.23L734.171 370.609ZM660.114 407.023L661.083 410.386L661.38 410.301L661.659 410.164L660.114 407.023ZM584.229 428.871L584.54 432.357L584.874 432.327L585.197 432.235L584.229 428.871ZM484.571 437.772L484.26 434.286L484.06 434.304L483.864 434.345L484.571 437.772ZM402.286 454.765L401.614 458.2L402.304 458.335L402.994 458.193L402.286 454.765ZM315.429 437.772L316.101 434.337L315.768 434.272H315.429V437.772ZM275.2 437.772V434.272H274.476L273.811 434.56L275.2 437.772ZM235.886 454.765L234.497 451.553L233.345 452.05L232.772 453.166L235.886 454.765ZM217.6 490.37L214.487 488.771L214.1 489.523V490.37H217.6ZM217.6 530.829H214.1V532.792L215.775 533.816L217.6 530.829ZM256 554.296L254.175 557.282L255.015 557.796H256V554.296ZM315.429 554.296L316.82 551.084L316.154 550.796H315.429V554.296ZM358.4 572.907L357.009 576.119L357.675 576.407H358.4V572.907ZM402.286 572.907V576.407H402.935L403.541 576.174L402.286 572.907ZM450.743 554.296V550.796H450.094L449.488 551.028L450.743 554.296ZM500.114 554.296V557.796H500.307L500.499 557.774L500.114 554.296ZM565.943 547.013L566.328 550.492L566.701 550.451L567.057 550.331L565.943 547.013ZM592.457 538.112L591.884 534.659L591.608 534.705L591.343 534.794L592.457 538.112ZM636.343 530.829V527.329H636.054L635.77 527.376L636.343 530.829ZM217.6 163.72H226.057V156.72H217.6V163.72ZM242.971 163.72H259.886V156.72H242.971V163.72ZM276.8 163.72H285.257V156.72H276.8V163.72ZM283.645 163.327L296.902 170.205L300.126 163.991L286.869 157.113L283.645 163.327ZM323.417 183.961L336.674 190.839L339.898 184.626L326.64 177.747L323.417 183.961ZM335.14 189.266L340.168 199.583L346.46 196.516L341.432 186.199L335.14 189.266ZM350.225 220.217L355.254 230.534L361.546 227.468L356.518 217.15L350.225 220.217ZM356.355 231.841L363.098 236.696L367.188 231.016L360.445 226.161L356.355 231.841ZM376.583 246.407L390.069 256.117L394.159 250.436L380.674 240.726L376.583 246.407ZM403.555 265.827L410.298 270.682L414.388 265.002L407.645 260.147L403.555 265.827ZM412.343 271.342H421.371V264.342H412.343V271.342ZM439.429 271.342H457.486V264.342H439.429V271.342ZM475.543 271.342H484.571V264.342H475.543V271.342ZM485.416 271.239L495.587 268.71L493.898 261.917L483.727 264.446L485.416 271.239ZM515.93 263.653L536.273 258.595L534.584 251.802L514.241 256.859L515.93 263.653ZM556.616 253.538L566.787 251.009L565.098 244.216L554.927 246.745L556.616 253.538ZM568.263 250.233L573.977 245.176L569.337 239.934L563.623 244.991L568.263 250.233ZM585.405 235.061L596.834 224.946L592.195 219.704L580.766 229.819L585.405 235.061ZM608.263 214.831L613.977 209.774L609.337 204.532L603.623 209.589L608.263 214.831ZM613.198 210.296L620.626 206.654L617.545 200.369L610.117 204.01L613.198 210.296ZM635.483 199.372L650.341 192.089L647.259 185.803L632.402 193.086L635.483 199.372ZM665.198 184.806L672.626 181.165L669.545 174.879L662.117 178.521L665.198 184.806ZM669.805 181.279L679.062 184.92L681.624 178.406L672.367 174.765L669.805 181.279ZM697.576 192.203L716.09 199.486L718.653 192.972L700.138 185.689L697.576 192.203ZM734.605 206.769L743.862 210.41L746.424 203.896L737.167 200.254L734.605 206.769ZM742.185 209.024L746.985 216.61L752.901 212.868L748.101 205.281L742.185 209.024ZM756.585 231.783L766.185 246.955L772.101 243.212L762.501 228.04L756.585 231.783ZM775.785 262.127L780.585 269.714L786.501 265.971L781.701 258.385L775.785 262.127ZM780.043 267.842V282.61H787.043V267.842H780.043ZM780.043 312.145V326.913H787.043V312.145H780.043ZM781.223 324.292L775.052 329.754L779.691 334.996L785.863 329.534L781.223 324.292ZM762.709 340.678L750.366 351.602L755.005 356.844L767.348 345.92L762.709 340.678ZM738.023 362.526L731.852 367.988L736.491 373.23L742.663 367.768L738.023 362.526ZM732.627 367.469L723.37 372.02L726.459 378.302L735.716 373.75L732.627 367.469ZM704.856 381.124L686.341 390.227L689.43 396.509L707.944 387.405L704.856 381.124ZM667.827 399.33L658.57 403.882L661.659 410.164L670.916 405.612L667.827 399.33ZM659.146 403.66L649.66 406.391L651.597 413.117L661.083 410.386L659.146 403.66ZM630.689 411.853L611.717 417.315L613.654 424.041L632.625 418.579L630.689 411.853ZM592.746 422.777L583.26 425.508L585.197 432.235L594.683 429.504L592.746 422.777ZM583.917 425.385L575.612 426.127L576.235 433.099L584.54 432.357L583.917 425.385ZM559.003 427.61L542.393 429.094L543.016 436.066L559.626 434.583L559.003 427.61ZM525.784 430.577L509.174 432.061L509.797 439.033L526.407 437.55L525.784 430.577ZM492.565 433.544L484.26 434.286L484.883 441.258L493.188 440.517L492.565 433.544ZM483.864 434.345L473.578 436.469L474.994 443.324L485.279 441.2L483.864 434.345ZM453.006 440.717L432.435 444.965L433.851 451.821L454.422 447.572L453.006 440.717ZM411.864 449.213L401.578 451.338L402.994 458.193L413.279 456.069L411.864 449.213ZM402.958 451.33L392.101 449.206L390.757 456.076L401.614 458.2L402.958 451.33ZM370.386 444.958L348.672 440.71L347.328 447.579L369.042 451.828L370.386 444.958ZM326.958 436.461L316.101 434.337L314.757 441.207L325.614 443.331L326.958 436.461ZM315.429 434.272H305.371V441.272H315.429V434.272ZM285.257 434.272H275.2V441.272H285.257V434.272ZM273.811 434.56L263.983 438.808L266.76 445.233L276.589 440.985L273.811 434.56ZM244.326 447.304L234.497 451.553L237.274 457.978L247.103 453.73L244.326 447.304ZM232.772 453.166L228.201 462.067L234.428 465.265L238.999 456.364L232.772 453.166ZM219.058 479.87L214.487 488.771L220.713 491.969L225.285 483.068L219.058 479.87ZM214.1 490.37V500.485H221.1V490.37H214.1ZM214.1 520.714V530.829H221.1V520.714H214.1ZM215.775 533.816L225.375 539.682L229.025 533.709L219.425 527.843L215.775 533.816ZM244.575 551.416L254.175 557.282L257.825 551.309L248.225 545.443L244.575 551.416ZM256 557.796H270.857V550.796H256V557.796ZM300.571 557.796H315.429V550.796H300.571V557.796ZM314.038 557.507L324.78 562.16L327.562 555.737L316.82 551.084L314.038 557.507ZM346.266 571.466L357.009 576.119L359.791 569.695L349.048 565.043L346.266 571.466ZM358.4 576.407H369.371V569.407H358.4V576.407ZM391.314 576.407H402.286V569.407H391.314V576.407ZM403.541 576.174L415.655 571.522L413.145 564.987L401.031 569.64L403.541 576.174ZM439.883 562.216L451.998 557.563L449.488 551.028L437.374 555.681L439.883 562.216ZM450.743 557.796H463.086V550.796H450.743V557.796ZM487.771 557.796H500.114V550.796H487.771V557.796ZM500.499 557.774L508.728 556.864L507.958 549.907L499.729 550.817L500.499 557.774ZM525.185 555.043L541.642 553.223L540.872 546.265L524.415 548.086L525.185 555.043ZM558.099 551.402L566.328 550.492L565.558 543.534L557.329 544.445L558.099 551.402ZM567.057 550.331L573.685 548.106L571.458 541.47L564.829 543.695L567.057 550.331ZM586.942 543.655L593.571 541.43L591.343 534.794L584.715 537.019L586.942 543.655ZM593.03 541.565L604.002 539.744L602.856 532.838L591.884 534.659L593.03 541.565ZM625.944 536.103L636.916 534.282L635.77 527.376L624.798 529.197L625.944 536.103ZM636.343 534.329H648.457V527.329H636.343V534.329ZM672.686 534.329H684.8V527.329H672.686V534.329Z" fill="black"/>
<path d="M833.344 273.844V291.781C832.324 291.781 831.347 291.376 830.626 290.655C829.905 289.935 829.5 288.957 829.5 287.938V286.656H826.938V287.938C826.94 289.636 827.615 291.264 828.816 292.465C830.017 293.666 831.645 294.342 833.344 294.344V307.156H838.469V273.844H833.344Z" fill="#A3783B"/>
<path d="M870.5 286.656V290.5C870.5 291.519 870.095 292.497 869.374 293.218C868.653 293.939 867.676 294.344 866.656 294.344V273.844H861.531V307.156H866.656V296.906C868.355 296.904 869.983 296.229 871.184 295.028C872.385 293.827 873.06 292.198 873.062 290.5V286.656H870.5Z" fill="#A3783B"/>
<path d="M817.5 264.347C816.156 262.682 815.418 260.609 815.406 258.469C815.49 256.244 816.286 254.105 817.675 252.365C819.065 250.626 820.976 249.378 823.127 248.804C823.114 248.61 823.094 248.42 823.094 248.219C823.094 242.558 828.256 237.969 834.625 237.969C840.994 237.969 846.156 242.558 846.156 248.219C846.072 250.444 845.277 252.583 843.887 254.322C842.498 256.062 840.587 257.31 838.435 257.883C838.448 258.078 838.469 258.268 838.469 258.469C838.438 260.117 837.996 261.732 837.183 263.167C836.369 264.601 835.211 265.81 833.813 266.684C835.157 268.35 835.895 270.422 835.906 272.562C835.906 278.223 830.744 282.812 824.375 282.812C818.006 282.812 812.844 278.223 812.844 272.562C812.875 270.914 813.317 269.299 814.13 267.864C814.943 266.43 816.101 265.221 817.5 264.347Z" fill="#B7C9AD"/>
<path d="M882.5 264.347C883.844 262.682 884.582 260.609 884.594 258.469C884.51 256.244 883.714 254.105 882.325 252.365C880.935 250.626 879.024 249.378 876.873 248.804C876.886 248.61 876.906 248.42 876.906 248.219C876.906 242.558 871.744 237.969 865.375 237.969C859.006 237.969 853.844 242.558 853.844 248.219C853.928 250.444 854.723 252.583 856.113 254.322C857.502 256.062 859.413 257.31 861.565 257.883C861.552 258.078 861.531 258.268 861.531 258.469C861.562 260.117 862.004 261.732 862.817 263.167C863.63 264.601 864.789 265.81 866.187 266.684C864.843 268.35 864.105 270.422 864.094 272.562C864.094 278.223 869.256 282.812 875.625 282.812C881.994 282.812 887.156 278.223 887.156 272.562C887.125 270.914 886.683 269.299 885.87 267.864C885.057 266.43 883.899 265.221 882.5 264.347Z" fill="#B7C9AD"/>
<path d="M865.375 260.876C866.088 259.592 866.516 258.17 866.631 256.706C866.745 255.242 866.543 253.771 866.039 252.392C865.535 251.013 864.739 249.758 863.707 248.714C862.675 247.669 861.431 246.859 860.058 246.338C860.355 244.809 860.301 243.232 859.897 241.727C859.494 240.223 858.753 238.829 857.731 237.654C856.709 236.478 855.432 235.551 853.998 234.943C852.564 234.335 851.01 234.062 849.454 234.144C847.899 234.227 846.382 234.663 845.021 235.419C843.659 236.175 842.487 237.232 841.595 238.509C840.702 239.786 840.113 241.249 839.871 242.788C839.629 244.327 839.741 245.901 840.198 247.39C838.054 246.724 835.75 246.782 833.642 247.555C831.534 248.327 829.738 249.771 828.531 251.664C827.323 253.557 826.772 255.795 826.961 258.032C827.15 260.269 828.069 262.382 829.577 264.046C828.766 264.816 828.116 265.738 827.663 266.76C827.21 267.781 826.964 268.883 826.937 270C826.937 275.661 833.248 280.25 841.031 280.25C844.177 280.289 847.275 279.479 850 277.907C852.725 279.479 855.823 280.289 858.969 280.25C866.752 280.25 873.063 275.661 873.063 270C873.063 266.017 869.932 262.569 865.375 260.876Z" fill="#7A9B69"/>
<path d="M847.438 307.156V282.812C844.719 282.812 842.112 281.733 840.19 279.81C838.267 277.888 837.188 275.281 837.188 272.562V267.438H842.312V272.562C842.312 273.922 842.852 275.225 843.814 276.186C844.775 277.148 846.078 277.688 847.438 277.688V262.312H852.562V307.156H847.438Z" fill="#A3783B"/>
<path d="M841.031 267.438V272.562C841.033 274.261 841.709 275.889 842.91 277.09C844.111 278.291 845.739 278.967 847.438 278.969C847.777 278.969 848.103 278.834 848.343 278.593C848.584 278.353 848.719 278.027 848.719 277.688V262.312H846.156V276.187C845.407 275.921 844.759 275.43 844.3 274.781C843.842 274.132 843.595 273.357 843.594 272.562V267.438H841.031Z" fill="black"/>
<path d="M825.656 257.188C825.657 259.639 826.442 262.026 827.897 264C826.473 265.677 825.68 267.8 825.656 270C825.656 274.419 828.922 278.379 834.178 280.333L835.075 277.931C830.844 276.36 828.219 273.321 828.219 270C828.245 269.048 828.459 268.111 828.849 267.243C829.24 266.375 829.798 265.592 830.492 264.94C830.721 264.708 830.853 264.396 830.861 264.069C830.868 263.743 830.75 263.425 830.531 263.182C829.217 261.726 828.417 259.878 828.254 257.923C828.091 255.968 828.575 254.014 829.63 252.36C830.685 250.706 832.254 249.444 834.095 248.768C835.937 248.091 837.95 248.038 839.824 248.616C840.047 248.682 840.283 248.688 840.508 248.632C840.734 248.576 840.94 248.461 841.106 248.298C841.27 248.134 841.387 247.928 841.443 247.702C841.499 247.476 841.493 247.239 841.425 247.017C841.023 245.714 840.923 244.336 841.134 242.988C841.345 241.641 841.86 240.359 842.641 239.241C843.421 238.123 844.446 237.197 845.639 236.534C846.831 235.872 848.158 235.49 849.52 235.418C850.882 235.346 852.243 235.585 853.498 236.118C854.754 236.65 855.871 237.462 856.766 238.492C857.66 239.521 858.308 240.741 858.66 242.059C859.012 243.377 859.059 244.757 858.797 246.096C858.739 246.392 858.788 246.699 858.934 246.963C859.081 247.227 859.316 247.431 859.598 247.538C860.799 247.995 861.887 248.704 862.79 249.618C863.692 250.532 864.388 251.629 864.829 252.836C865.269 254.042 865.446 255.329 865.345 256.61C865.245 257.89 864.87 259.134 864.246 260.257C864.157 260.419 864.103 260.597 864.089 260.781C864.075 260.965 864.101 261.15 864.165 261.323C864.229 261.496 864.329 261.653 864.459 261.783C864.589 261.914 864.746 262.015 864.919 262.079C869.153 263.65 871.781 266.685 871.781 270C871.781 274.944 866.034 278.969 858.969 278.969C858.169 278.969 857.37 278.917 856.577 278.811L856.236 281.351C857.142 281.472 858.055 281.532 858.969 281.531C867.447 281.531 874.344 276.359 874.344 270C874.344 265.96 871.603 262.301 867.102 260.211C868.191 257.509 868.215 254.493 867.169 251.774C866.123 249.054 864.084 246.832 861.465 245.556C861.508 245.164 861.53 244.77 861.531 244.375C861.531 241.317 860.316 238.384 858.154 236.221C855.991 234.059 853.058 232.844 850 232.844C846.942 232.844 844.009 234.059 841.846 236.221C839.684 238.384 838.469 241.317 838.469 244.375C838.469 244.83 838.495 245.284 838.548 245.736C838.097 245.683 837.642 245.656 837.188 245.656C834.13 245.66 831.199 246.876 829.037 249.037C826.876 251.199 825.66 254.13 825.656 257.188Z" fill="black"/>
<path d="M884.264 264.06C885.315 262.384 885.873 260.447 885.875 258.469C885.808 256.138 885.038 253.883 883.666 251.998C882.294 250.113 880.385 248.687 878.187 247.907C877.999 241.692 872.323 236.687 865.375 236.687C864.428 236.687 863.484 236.78 862.556 236.967L863.069 239.479C863.828 239.326 864.601 239.249 865.375 239.25C871.027 239.25 875.625 243.274 875.625 248.219C875.625 248.328 875.616 248.434 875.607 248.542L875.594 248.722C875.576 249.009 875.654 249.293 875.817 249.53C875.979 249.767 876.217 249.942 876.491 250.028C878.381 250.522 880.062 251.608 881.29 253.127C882.517 254.646 883.226 256.518 883.312 258.469C883.302 260.321 882.66 262.114 881.494 263.553C881.384 263.692 881.304 263.852 881.26 264.024C881.215 264.195 881.206 264.374 881.234 264.549C881.262 264.725 881.326 264.892 881.422 265.041C881.518 265.19 881.644 265.318 881.792 265.416C883.016 266.169 884.032 267.219 884.746 268.468C885.459 269.717 885.848 271.125 885.875 272.562C885.875 277.507 881.277 281.531 875.625 281.531C873.604 281.543 871.617 281.009 869.875 279.985L868.563 282.187C870.703 283.446 873.142 284.105 875.625 284.094C882.69 284.094 888.437 278.921 888.437 272.562C888.413 270.925 888.026 269.314 887.304 267.843C886.583 266.373 885.545 265.081 884.264 264.06Z" fill="black"/>
<path d="M867.938 296.778C869.384 296.481 870.683 295.694 871.616 294.55C872.55 293.407 873.061 291.976 873.062 290.5V286.656H870.5V290.5C870.497 291.292 870.249 292.064 869.79 292.71C869.331 293.356 868.684 293.844 867.938 294.108V284.094H865.375V305.875H862.812V284.094H860.25V305.875H853.844V262.312H851.281V305.875H848.719V282.812C848.719 282.473 848.584 282.147 848.343 281.907C848.103 281.666 847.777 281.531 847.438 281.531C845.06 281.529 842.78 280.583 841.099 278.901C839.417 277.22 838.471 274.94 838.469 272.562V267.438H835.906V272.562C835.91 275.398 836.956 278.133 838.847 280.246C840.737 282.36 843.339 283.704 846.156 284.022V305.875H839.75V284.094H837.188V305.875H834.625V284.094H832.062V291.546C831.316 291.281 830.669 290.793 830.21 290.147C829.751 289.501 829.503 288.73 829.5 287.938V286.656H826.938V287.938C826.939 289.414 827.45 290.844 828.384 291.988C829.317 293.131 830.616 293.918 832.062 294.216V305.875H816.688V308.438H888.438V305.875H867.938V296.778Z" fill="black"/>
<path d="M811.562 272.562C811.562 278.921 817.31 284.094 824.375 284.094C826.858 284.105 829.297 283.446 831.437 282.187L830.125 279.985C828.383 281.009 826.396 281.543 824.375 281.531C818.723 281.531 814.125 277.507 814.125 272.562C814.152 271.125 814.541 269.717 815.254 268.468C815.968 267.219 816.984 266.169 818.208 265.416C818.356 265.318 818.482 265.19 818.578 265.041C818.674 264.892 818.738 264.725 818.766 264.549C818.794 264.374 818.785 264.195 818.74 264.024C818.696 263.852 818.616 263.692 818.506 263.553C817.34 262.114 816.699 260.321 816.688 258.469C816.774 256.518 817.483 254.646 818.71 253.127C819.937 251.608 821.618 250.521 823.508 250.027C823.782 249.941 824.019 249.766 824.182 249.529C824.345 249.292 824.423 249.008 824.404 248.721L824.392 248.542C824.384 248.435 824.375 248.328 824.375 248.219C824.375 243.274 828.973 239.25 834.625 239.25C835.399 239.249 836.172 239.326 836.931 239.479L837.444 236.967C836.516 236.78 835.572 236.687 834.625 236.687C827.677 236.687 822.002 241.692 821.812 247.906C819.616 248.686 817.706 250.113 816.334 251.998C814.962 253.883 814.192 256.138 814.125 258.469C814.128 260.447 814.686 262.384 815.736 264.06C814.455 265.081 813.417 266.373 812.696 267.843C811.974 269.314 811.587 270.925 811.562 272.562Z" fill="black"/>
<path d="M814.125 305.875H811.562V308.438H814.125V305.875Z" fill="black"/>
<path d="M462.922 366.412H538.486H560.33C560.899 366.412 561.463 366.509 561.999 366.698L563.263 367.146C565.26 367.853 566.595 369.741 566.595 371.859V372.744C566.595 375.169 564.854 377.245 562.466 377.667L559.221 378.242C557.233 378.594 555.784 380.322 555.784 382.341C555.784 384.641 557.648 386.505 559.947 386.505H567C569.761 386.505 572 388.743 572 391.505V395.857C572 398.618 569.761 400.857 567 400.857H563.351H497.622C495.54 400.857 493.676 399.567 492.943 397.619L492 395.116L491.558 393.551C491.153 392.118 490.131 390.94 488.769 390.338L485.399 388.846C484.762 388.564 484.072 388.418 483.376 388.418H462.922C462.138 388.418 461.365 388.234 460.666 387.88L456.121 385.582C454.872 384.95 453.946 383.825 453.566 382.479L452.411 378.392C452.143 377.443 452.162 376.436 452.465 375.497L453.521 372.224C453.931 370.954 454.832 369.9 456.023 369.298L460.666 366.95C461.365 366.596 462.138 366.412 462.922 366.412Z" fill="#BAD8E1" stroke="black" stroke-width="3"/>
<rect x="463.892" y="376.937" width="30.2703" height="1.9136" rx="0.956802" fill="black"/>
<rect x="504.973" y="376.937" width="15.1351" height="1.9136" rx="0.956802" fill="black"/>
<rect x="530.919" y="376.937" width="6.48645" height="1.9136" rx="0.956802" fill="black"/>
<rect x="537.405" y="392.298" width="15.1351" height="1.91367" rx="0.956833" fill="black"/>
<rect x="520.108" y="392.246" width="6.48645" height="1.9136" rx="0.956802" fill="black"/>
<path d="M161.361 508.694C161.361 508.694 172.709 515.617 172.396 530.589H181.604C181.291 515.617 192.639 508.694 192.639 508.694H161.361Z" fill="#FCCF3F"/>
<path d="M195.85 504.331C195.844 501.969 193.928 500.057 191.565 500.057C190.629 500.057 189.763 500.359 189.057 500.869C188.347 498.265 185.966 496.351 183.138 496.351C182.74 496.351 182.352 496.39 181.975 496.463C181.474 494.119 179.391 492.361 176.897 492.361C174.416 492.361 172.343 494.101 171.827 496.427C171.513 496.378 171.191 496.351 170.862 496.351C168.034 496.351 165.653 498.265 164.942 500.869C164.237 500.359 163.371 500.057 162.434 500.057C160.072 500.057 158.155 501.969 158.15 504.331C155.535 504.531 153.475 506.715 153.475 509.381C153.475 512.179 155.743 514.449 158.541 514.449C160.381 514.449 161.992 513.468 162.879 512.001C164.067 513.492 165.897 514.449 167.952 514.449C169.892 514.449 171.632 513.595 172.82 512.245C173.733 513.576 175.265 514.449 177 514.449C178.735 514.449 180.266 513.575 181.18 512.245C182.368 513.595 184.108 514.449 186.048 514.449C188.102 514.449 189.932 513.492 191.121 512.001C192.008 513.468 193.619 514.449 195.458 514.449C198.256 514.449 200.525 512.179 200.525 509.381C200.525 506.715 198.465 504.531 195.85 504.331Z" fill="#EFEFEF"/>
<path d="M195.85 504.331C195.844 501.969 193.928 500.057 191.565 500.057C190.629 500.057 189.763 500.359 189.057 500.869C188.347 498.265 185.966 496.351 183.138 496.351C182.74 496.351 182.352 496.39 181.975 496.463C181.474 494.119 179.391 492.361 176.897 492.361C174.478 492.361 172.447 494.017 171.869 496.255C171.887 496.324 171.904 496.393 171.919 496.462C172.295 496.39 172.683 496.351 173.081 496.351C175.291 496.351 177.227 497.519 178.308 499.272C178.767 500.018 179.64 500.387 180.492 500.178C180.818 500.099 181.158 500.057 181.509 500.057C183.487 500.057 185.152 501.397 185.645 503.219C185.817 503.854 186.311 504.354 186.939 504.553C188.985 505.204 190.469 507.119 190.469 509.381C190.469 512.079 188.36 514.283 185.701 514.438C185.816 514.445 185.932 514.448 186.048 514.448C188.103 514.448 189.933 513.492 191.121 512.001C192.07 513.57 193.846 514.582 195.844 514.434C198.303 514.252 200.302 512.273 200.507 509.816C200.746 506.956 198.606 504.542 195.85 504.331Z" fill="#D8D8D8"/>
<path d="M182.296 524.588H171.766C171.396 524.588 171.079 524.846 171.003 525.207C170.26 528.777 165.457 547.263 142.733 566.945H211.329C188.604 547.263 183.802 528.777 183.059 525.207C182.983 524.846 182.666 524.588 182.296 524.588Z" fill="#575D60"/>
<path d="M210.734 566.424C188.523 546.938 183.796 528.746 183.059 525.207C182.983 524.846 182.666 524.588 182.296 524.588H175.93C177.086 532.077 181.83 550.125 201.251 566.945H211.329C211.128 566.771 210.931 566.598 210.734 566.424Z" fill="#464C50"/>
<path d="M213.712 565.314H140.288C138.583 565.314 137.201 566.695 137.201 568.4C137.201 570.105 138.583 571.487 140.288 571.487H213.712C215.417 571.487 216.799 570.105 216.799 568.4C216.799 566.695 215.417 565.314 213.712 565.314Z" fill="#7BB72E"/>
<path d="M170.666 534.075C171.736 533.198 173.335 533.472 174.052 534.656L174.107 534.745C175.466 536.989 178.698 537.056 180.149 534.87L180.303 534.638C181.054 533.506 182.623 533.281 183.662 534.155C183.662 534.155 184.669 534.957 185.625 535.684C186.073 536.025 186.677 535.54 186.445 535.027C184.216 530.094 183.342 526.567 183.059 525.207C182.984 524.846 182.666 524.588 182.296 524.588H171.766C171.397 524.588 171.079 524.846 171.004 525.207C170.717 526.58 169.829 530.163 167.552 535.171C167.32 535.681 167.919 536.166 168.368 535.831C169.453 535.022 170.666 534.075 170.666 534.075Z" fill="#FC4E51"/>
<path d="M172.983 542.44C173.293 541.853 173.07 541.126 172.483 540.816C171.896 540.506 171.17 540.73 170.86 541.316C170.025 542.894 164.752 551.641 163.023 554.055C162.637 554.594 162.75 555.36 163.3 555.731C163.82 556.081 164.628 555.948 164.976 555.453C166.727 552.969 172.131 544.05 172.983 542.44Z" fill="black"/>
<path d="M169.292 562.262C169.815 562.657 170.58 562.55 170.975 562.028C173.245 559.026 175.148 556.002 176.633 553.039C176.93 552.446 176.69 551.724 176.097 551.427C175.504 551.13 174.782 551.37 174.485 551.963C173.066 554.795 171.241 557.694 169.059 560.579C168.658 561.109 168.763 561.862 169.292 562.262Z" fill="black"/>
<path d="M213.712 564.112H140.288C137.924 564.112 136 566.036 136 568.4C136 570.764 137.924 572.688 140.288 572.688H213.712C216.076 572.688 218 570.764 218 568.4C218 566.036 216.076 564.112 213.712 564.112ZM213.712 570.286H140.288C139.248 570.286 138.402 569.44 138.402 568.4C138.402 567.36 139.248 566.515 140.288 566.515H213.712C214.752 566.515 215.598 567.36 215.598 568.4C215.598 569.44 214.752 570.286 213.712 570.286Z" fill="black"/>
<path d="M148.914 562.89C156.46 555.679 163.223 546.93 167.794 537.47C169.341 536.543 171.393 535.032 171.405 535.022C171.412 535.016 171.42 535.01 171.426 535.005C171.918 534.598 172.698 534.739 173.025 535.279C173.884 536.696 175.44 537.649 177.11 537.67C178.721 537.691 180.258 536.877 181.15 535.535C181.544 534.94 182.249 534.536 182.889 535.074C182.897 535.081 182.905 535.088 182.913 535.094C182.923 535.102 186.201 537.333 186.201 537.333C191.574 547.459 197.261 555.146 204.996 562.741C205.47 563.205 206.23 563.198 206.695 562.725C207.159 562.251 207.153 561.491 206.679 561.026C188.814 543.487 184.848 527.907 184.235 524.963C184.139 524.503 183.885 524.108 183.538 523.828C184.278 520.846 185.567 518.062 187.38 515.534C188.73 515.299 189.985 514.709 191.027 513.819C192.186 514.984 193.761 515.65 195.458 515.65C198.915 515.65 201.726 512.838 201.726 509.381C201.726 506.473 199.697 503.971 196.951 503.295C196.31 499.997 192.852 498.032 189.691 499.185C188.416 496.663 185.744 495.03 182.825 495.157C181.862 492.788 179.52 491.16 176.897 491.16C174.283 491.16 171.938 492.787 170.972 495.151C168.127 495.106 165.554 496.721 164.31 499.185C161.15 498.034 157.69 499.995 157.049 503.295C154.302 503.971 152.273 506.473 152.273 509.381C152.273 512.838 155.085 515.65 158.541 515.65C160.239 515.65 161.813 514.984 162.973 513.819C164.015 514.709 165.27 515.299 166.619 515.534C168.442 518.075 169.735 520.873 170.472 523.873C170.152 524.149 169.917 524.526 169.827 524.963C169.477 526.642 168.308 531.239 165.023 537.636C160.823 545.815 154.838 553.734 147.233 561.172C146.759 561.636 146.751 562.397 147.215 562.871C147.438 563.098 148.322 563.454 148.914 562.89ZM172.827 523.387C172.148 520.583 171.03 517.938 169.488 515.493C170.674 515.25 171.788 514.731 172.737 513.976C173.885 515.04 175.403 515.65 177 515.65C178.597 515.65 180.115 515.04 181.263 513.976C182.212 514.731 183.326 515.25 184.512 515.493C182.97 517.939 181.852 520.583 181.173 523.387H172.827ZM163.818 511.253C163.307 510.612 162.275 510.68 161.851 511.379C161.144 512.549 159.906 513.247 158.541 513.247C156.41 513.247 154.676 511.513 154.676 509.381C154.676 507.374 156.242 505.682 158.241 505.529C158.866 505.48 159.349 504.96 159.351 504.334C159.357 501.822 162.217 500.38 164.238 501.842C164.906 502.325 165.885 501.976 166.101 501.185C166.685 499.046 168.643 497.552 170.862 497.552C171.686 497.552 172.753 497.803 173 496.687C173.401 494.876 175.04 493.562 176.897 493.562C178.768 493.562 180.41 494.888 180.801 496.714C181.051 497.884 182.268 497.552 183.137 497.552C185.356 497.552 187.314 499.046 187.899 501.185C188.115 501.978 189.096 502.324 189.761 501.842C191.779 500.382 194.642 501.82 194.648 504.334C194.65 504.96 195.133 505.48 195.758 505.529C197.758 505.682 199.324 507.374 199.324 509.381C199.324 511.513 197.589 513.247 195.458 513.247C194.093 513.247 192.856 512.549 192.148 511.379C191.725 510.681 190.689 510.615 190.181 511.252C189.171 512.52 187.664 513.247 186.048 513.247C184.531 513.247 183.085 512.592 182.081 511.451C181.574 510.875 180.622 510.934 180.189 511.565C179.466 512.618 178.274 513.247 176.999 513.247C175.725 513.247 174.533 512.619 173.81 511.565C173.378 510.936 172.419 510.883 171.918 511.451C170.913 512.592 169.468 513.247 167.951 513.247C166.335 513.247 164.829 512.52 163.818 511.253ZM172.107 525.79H181.955C182.256 527.14 182.936 529.705 184.337 533.157C183.593 532.577 182.641 532.321 181.703 532.455C180.725 532.596 179.849 533.149 179.302 533.973C178.792 534.743 178.097 535.286 177.118 535.268C176.252 535.252 175.52 534.761 175.079 534.033C174.557 533.171 173.688 532.579 172.695 532.409C171.534 532.21 170.547 532.648 169.65 533.343C171.102 529.797 171.8 527.165 172.107 525.79Z" fill="black"/>
<mask id="path-38-inside-3" fill="white">
<path fill-rule="evenodd" clip-rule="evenodd" d="M733.269 533.786L726.154 546.919L745.939 555.316L753.055 542.183L767.894 548.481L777.382 530.969L762.543 524.672L769.658 511.538L749.873 503.141L742.757 516.274L727.918 509.977L718.43 527.488L733.269 533.786Z"/>
</mask>
<path fill-rule="evenodd" clip-rule="evenodd" d="M733.269 533.786L726.154 546.919L745.939 555.316L753.055 542.183L767.894 548.481L777.382 530.969L762.543 524.672L769.658 511.538L749.873 503.141L742.757 516.274L727.918 509.977L718.43 527.488L733.269 533.786Z" fill="#FF6961"/>
<path d="M726.154 546.919L721.551 544.966L719.169 549.362L723.772 551.316L726.154 546.919ZM733.269 533.786L737.872 535.739L740.254 531.343L735.651 529.39L733.269 533.786ZM745.939 555.316L743.557 559.713L748.16 561.666L750.542 557.27L745.939 555.316ZM753.055 542.183L755.437 537.787L750.834 535.833L748.452 540.23L753.055 542.183ZM767.894 548.481L765.512 552.877L770.115 554.83L772.497 550.434L767.894 548.481ZM777.382 530.969L781.985 532.923L784.366 528.527L779.764 526.573L777.382 530.969ZM762.543 524.672L757.94 522.718L755.558 527.114L760.161 529.068L762.543 524.672ZM769.658 511.538L774.261 513.492L776.643 509.095L772.04 507.142L769.658 511.538ZM749.873 503.141L752.255 498.745L747.652 496.791L745.27 501.188L749.873 503.141ZM742.757 516.274L740.375 520.671L744.978 522.624L747.36 518.228L742.757 516.274ZM727.918 509.977L730.3 505.58L725.697 503.627L723.315 508.023L727.918 509.977ZM718.43 527.488L713.827 525.535L711.446 529.931L716.048 531.884L718.43 527.488ZM730.756 548.873L737.872 535.739L728.667 531.832L721.551 544.966L730.756 548.873ZM748.321 550.92L728.535 542.523L723.772 551.316L743.557 559.713L748.321 550.92ZM748.452 540.23L741.337 553.363L750.542 557.27L757.658 544.136L748.452 540.23ZM770.276 544.085L755.437 537.787L750.673 546.579L765.512 552.877L770.276 544.085ZM772.779 529.016L763.292 546.527L772.497 550.434L781.985 532.923L772.779 529.016ZM760.161 529.068L775 535.366L779.764 526.573L764.925 520.275L760.161 529.068ZM765.056 509.585L757.94 522.718L767.145 526.625L774.261 513.492L765.056 509.585ZM747.491 507.537L767.277 515.934L772.04 507.142L752.255 498.745L747.491 507.537ZM747.36 518.228L754.475 505.094L745.27 501.188L738.154 514.321L747.36 518.228ZM725.536 514.373L740.375 520.671L745.139 511.878L730.3 505.58L725.536 514.373ZM723.033 529.441L732.52 511.93L723.315 508.023L713.827 525.535L723.033 529.441ZM735.651 529.39L720.812 523.092L716.048 531.884L730.887 538.182L735.651 529.39Z" fill="black" mask="url(#path-38-inside-3)"/>
<rect x="261.486" y="79.3007" width="676.571" height="6.47353" rx="3.23676" fill="black"/>
<rect x="226.743" y="79.3007" width="18.2857" height="6.47353" rx="3.23676" fill="black"/>
<rect x="157.257" y="79.3007" width="18.2857" height="6.47353" rx="3.23676" fill="black"/>
<rect x="85.9429" y="79.3007" width="54.8571" height="6.47353" rx="3.23676" fill="black"/>
<rect x="201.143" y="79.3007" width="9.14286" height="6.47353" rx="3.23676" fill="black"/>
<rect x="758.857" y="636.024" width="676.571" height="6.47353" rx="3.23676" transform="rotate(-180 758.857 636.024)" fill="black"/>
<rect x="793.6" y="636.024" width="18.2857" height="6.47353" rx="3.23676" transform="rotate(-180 793.6 636.024)" fill="black"/>
<rect x="863.086" y="636.024" width="18.2857" height="6.47353" rx="3.23676" transform="rotate(-180 863.086 636.024)" fill="black"/>
<rect x="938.057" y="636.024" width="54.8571" height="6.47353" rx="3.23676" transform="rotate(-180 938.057 636.024)" fill="black"/>
<rect x="819.2" y="636.024" width="9.14286" height="6.47353" rx="3.23676" transform="rotate(-180 819.2 636.024)" fill="black"/>
<rect x="1000" y="33.632" width="14.6286" height="653.169" rx="2" fill="#CBAA7E"/>
<rect x="60" y="33.632" width="14.6286" height="653.169" rx="2" fill="#CBAA7E"/>
<rect x="916" y="85.8501" width="21.9429" height="539.882" rx="2" fill="#D5B58B"/>
<g clip-path="url(#clip0)">
<path d="M165.786 133.289C165.786 133.289 163.433 133.858 160.643 134.916V125.892C160.643 124.948 159.782 124.185 158.714 124.185C157.647 124.185 156.786 124.948 156.786 125.892V127.599C156.786 130.114 154.497 132.14 151.643 132.151H151.63C149.496 132.162 147.786 133.676 147.786 135.565C145.651 135.565 143.929 134.028 143.929 132.151C139.66 132.151 136.214 129.09 136.214 125.323V121.91C136.214 125.05 139.095 127.599 142.643 127.599V127.588C146.911 127.588 150.357 124.537 150.357 120.772C150.357 116.368 154.381 112.806 159.357 112.806C166.467 112.806 172.214 117.893 172.214 124.185C174.349 124.185 176.071 122.649 176.071 120.772V127.588C176.071 130.114 173.77 132.14 170.929 132.14V134.916C168.139 133.858 165.786 133.289 165.786 133.289Z" fill="#ED5565"/>
<path d="M172.214 124.185C172.214 117.893 166.467 112.806 159.357 112.806C158.331 112.806 157.35 112.966 156.432 113.244C161.833 114.591 165.786 118.969 165.786 124.185V133.289C165.786 133.289 168.139 133.858 170.929 134.916V132.14C173.77 132.14 176.071 130.114 176.071 127.588V120.772C176.071 122.649 174.349 124.185 172.214 124.185Z" fill="#DA4453"/>
<path d="M165.786 133.289V149.22L151.643 146.091V142.392C151.643 139.024 156.593 136.452 160.643 134.916C163.433 133.858 165.786 133.289 165.786 133.289Z" fill="#CCD1D9"/>
<path d="M179.929 142.392V146.091L165.786 149.22V133.289C165.786 133.289 168.139 133.858 170.929 134.916C174.978 136.452 179.929 139.024 179.929 142.392Z" fill="#CCD1D9"/>
<path d="M170.929 134.916C168.139 133.858 165.786 133.289 165.786 133.289C165.786 133.289 164.734 133.546 163.214 134.026C163.978 134.267 164.851 134.561 165.786 134.915C169.836 136.452 174.786 139.023 174.786 142.391V147.227L179.929 146.089V142.392C179.929 139.024 174.978 136.452 170.929 134.916Z" fill="#AAB2BD"/>
<path d="M165.786 173.116V183.358L147.786 174.254L151.643 164.013L161.929 173.116H165.786Z" fill="#CCD1D9"/>
<path d="M179.929 164.013L183.786 174.254L165.786 183.358V173.116H169.643L179.929 164.013Z" fill="#CCD1D9"/>
<path d="M179.503 176.419L183.786 174.254L179.929 164.013L176.08 167.419L179.503 176.419Z" fill="#AAB2BD"/>
<path d="M165.786 157.185L155.5 154.909V151.496L165.786 153.772L176.071 151.496V154.909L165.786 157.185Z" fill="#656D78"/>
<path d="M161.929 173.116L150.357 162.875V145.806L165.786 149.22L181.214 145.806V162.875L169.643 173.116H161.929ZM176.071 154.909V151.496L165.786 153.772L155.5 151.496V154.909L165.786 157.185L176.071 154.909Z" fill="#E6E9ED"/>
<path d="M179.929 146.091L176.071 146.944V167.427L181.214 162.875V145.806L179.929 146.091Z" fill="#CCD1D9"/>
<path d="M169.643 174.254H161.929C161.217 174.254 160.643 173.746 160.643 173.116C160.643 172.487 161.217 171.978 161.929 171.978H169.111L179.929 162.404V147.263L166.097 150.324C165.408 150.475 164.711 150.106 164.538 149.495C164.365 148.886 164.784 148.269 165.474 148.116L180.903 144.702C181.287 144.614 181.693 144.692 182.005 144.909C182.317 145.124 182.5 145.455 182.5 145.806V162.875C182.5 163.178 182.365 163.467 182.123 163.679L170.552 173.921C170.311 174.135 169.985 174.254 169.643 174.254Z" fill="black"/>
<path d="M161.929 174.254C161.6 174.254 161.27 174.142 161.02 173.921L149.448 163.679C149.206 163.467 149.071 163.178 149.071 162.875V145.806C149.071 145.455 149.254 145.124 149.566 144.909C149.879 144.694 150.289 144.616 150.669 144.702L166.097 148.116C166.786 148.269 167.205 148.886 167.033 149.495C166.861 150.105 166.16 150.473 165.474 150.324L151.643 147.263V162.404L162.838 172.312C163.34 172.757 163.34 173.476 162.838 173.921C162.587 174.142 162.258 174.254 161.929 174.254Z" fill="black"/>
<path d="M165.784 158.323C165.208 158.323 164.685 157.978 164.538 157.461C164.365 156.852 164.784 156.234 165.474 156.081L174.786 154.019V152.952L166.097 154.873C165.408 155.026 164.711 154.656 164.538 154.045C164.365 153.436 164.784 152.818 165.474 152.665L175.76 150.389C176.142 150.302 176.549 150.381 176.862 150.597C177.174 150.814 177.357 151.145 177.357 151.496V154.909C177.357 155.432 176.955 155.886 176.383 156.013L166.097 158.289C165.993 158.312 165.887 158.323 165.784 158.323Z" fill="black"/>
<path d="M165.787 158.323C165.684 158.323 165.579 158.312 165.474 158.289L155.189 156.013C154.617 155.886 154.214 155.432 154.214 154.909V151.496C154.214 151.145 154.397 150.814 154.709 150.599C155.022 150.385 155.43 150.307 155.811 150.392L166.097 152.668C166.786 152.82 167.205 153.438 167.033 154.047C166.861 154.657 166.16 155.026 165.474 154.876L156.786 152.953V154.021L166.097 156.082C166.786 156.235 167.205 156.853 167.033 157.462C166.886 157.978 166.363 158.323 165.787 158.323Z" fill="black"/>
<path d="M165.786 184.495C165.074 184.495 164.5 183.987 164.5 183.358V173.116C164.5 172.487 165.074 171.978 165.786 171.978C166.497 171.978 167.071 172.487 167.071 173.116V183.358C167.071 183.987 166.497 184.495 165.786 184.495Z" fill="black"/>
<path d="M165.786 170.84C165.074 170.84 164.5 170.332 164.5 169.702V161.737C164.5 161.107 165.074 160.599 165.786 160.599C166.497 160.599 167.071 161.107 167.071 161.737V169.702C167.071 170.332 166.497 170.84 165.786 170.84Z" fill="black"/>
<path d="M170.929 168.565C170.217 168.565 169.643 168.056 169.643 167.427V160.649C169.643 160.02 170.217 159.511 170.929 159.511C171.64 159.511 172.214 160.02 172.214 160.649V167.427C172.214 168.056 171.64 168.565 170.929 168.565Z" fill="black"/>
<path d="M176.071 164.013C175.36 164.013 174.786 163.504 174.786 162.875V159.461C174.786 158.832 175.36 158.323 176.071 158.323C176.783 158.323 177.357 158.832 177.357 159.461V162.875C177.357 163.504 176.783 164.013 176.071 164.013Z" fill="black"/>
<path d="M160.643 168.565C159.932 168.565 159.357 168.056 159.357 167.427V160.649C159.357 160.02 159.932 159.511 160.643 159.511C161.354 159.511 161.929 160.02 161.929 160.649V167.427C161.929 168.056 161.354 168.565 160.643 168.565Z" fill="black"/>
<path d="M155.5 164.013C154.789 164.013 154.214 163.504 154.214 162.875V159.461C154.214 158.832 154.789 158.323 155.5 158.323C156.211 158.323 156.786 158.832 156.786 159.461V162.875C156.786 163.504 156.211 164.013 155.5 164.013Z" fill="black"/>
<path d="M151.643 147.228C150.932 147.228 150.357 146.72 150.357 146.091V142.392C150.357 141.763 150.932 141.254 151.643 141.254C152.354 141.254 152.929 141.763 152.929 142.392V146.091C152.929 146.72 152.354 147.228 151.643 147.228Z" fill="black"/>
<path d="M151.643 143.53C150.932 143.53 150.357 143.022 150.357 142.392C150.357 136.016 163.902 132.564 165.447 132.191C166.128 132.025 166.837 132.382 167.026 132.988C167.214 133.595 166.809 134.221 166.125 134.387C162.701 135.214 152.929 138.464 152.929 142.392C152.929 143.022 152.354 143.53 151.643 143.53Z" fill="black"/>
<path d="M179.929 147.228C179.217 147.228 178.643 146.72 178.643 146.091V142.392C178.643 141.763 179.217 141.254 179.929 141.254C180.64 141.254 181.214 141.763 181.214 142.392V146.091C181.214 146.72 180.64 147.228 179.929 147.228Z" fill="black"/>
<path d="M179.929 143.53C179.217 143.53 178.643 143.022 178.643 142.392C178.643 138.457 168.87 135.213 165.447 134.387C164.762 134.221 164.357 133.596 164.545 132.989C164.733 132.382 165.445 132.024 166.124 132.191C167.669 132.564 181.214 136.016 181.214 142.392C181.214 143.022 180.64 143.53 179.929 143.53Z" fill="black"/>
<path d="M183.786 175.392C183.247 175.392 182.745 175.09 182.567 174.614L178.709 164.372C178.485 163.776 178.849 163.131 179.522 162.933C180.2 162.732 180.924 163.056 181.149 163.652L185.006 173.894C185.231 174.49 184.867 175.135 184.193 175.333C184.057 175.373 183.919 175.392 183.786 175.392Z" fill="black"/>
<path d="M165.787 184.495C165.339 184.495 164.906 184.289 164.67 183.922C164.317 183.377 164.532 182.681 165.148 182.37L183.148 173.266C183.764 172.951 184.551 173.145 184.902 173.69C185.254 174.235 185.039 174.93 184.424 175.242L166.424 184.345C166.223 184.448 166.003 184.495 165.787 184.495Z" fill="black"/>
<path d="M147.786 175.392C147.652 175.392 147.515 175.373 147.38 175.333C146.707 175.135 146.342 174.491 146.567 173.894L150.424 163.652C150.649 163.057 151.372 162.732 152.05 162.933C152.723 163.131 153.088 163.775 152.863 164.372L149.006 174.614C148.826 175.09 148.324 175.392 147.786 175.392Z" fill="black"/>
<path d="M165.784 184.495C165.569 184.495 165.349 184.448 165.148 184.345L147.148 175.242C146.532 174.93 146.317 174.235 146.67 173.69C147.02 173.145 147.805 172.951 148.424 173.266L166.424 182.37C167.039 182.681 167.254 183.377 166.902 183.922C166.665 184.289 166.232 184.495 165.784 184.495Z" fill="black"/>
<path d="M172.214 125.323C171.503 125.323 170.929 124.815 170.929 124.185C170.929 118.538 165.738 113.944 159.357 113.944C158.646 113.944 158.071 113.436 158.071 112.806C158.071 112.177 158.646 111.668 159.357 111.668C167.155 111.668 173.5 117.284 173.5 124.185C173.5 124.815 172.926 125.323 172.214 125.323Z" fill="black"/>
<path d="M170.929 136.055C170.217 136.055 169.643 135.546 169.643 134.917V132.151C169.643 131.521 170.217 131.013 170.929 131.013C171.64 131.013 172.214 131.521 172.214 132.151V134.917C172.214 135.545 171.64 136.055 170.929 136.055Z" fill="black"/>
<path d="M160.643 136.055C159.932 136.055 159.357 135.546 159.357 134.917V125.892C159.357 125.263 159.932 124.754 160.643 124.754C161.354 124.754 161.929 125.263 161.929 125.892V134.917C161.929 135.545 161.354 136.055 160.643 136.055Z" fill="black"/>
<path d="M150.357 121.91C149.646 121.91 149.071 121.401 149.071 120.772C149.071 115.752 153.686 111.668 159.357 111.668C160.068 111.668 160.643 112.177 160.643 112.806C160.643 113.436 160.068 113.944 159.357 113.944C155.103 113.944 151.643 117.006 151.643 120.772C151.643 121.401 151.068 121.91 150.357 121.91Z" fill="black"/>
<path d="M142.644 128.736C141.933 128.736 141.358 128.227 141.358 127.598C141.358 126.969 141.933 126.46 142.644 126.46C146.189 126.46 149.071 123.909 149.071 120.772C149.071 120.142 149.646 119.634 150.357 119.634C151.068 119.634 151.643 120.142 151.643 120.772C151.643 125.163 147.606 128.736 142.644 128.736Z" fill="black"/>
<path d="M142.643 128.737C138.388 128.737 134.929 125.675 134.929 121.91C134.929 121.28 135.503 120.772 136.214 120.772C136.926 120.772 137.5 121.28 137.5 121.91C137.5 124.42 139.807 126.461 142.643 126.461C143.354 126.461 143.929 126.97 143.929 127.599C143.929 128.229 143.354 128.737 142.643 128.737Z" fill="black"/>
<path d="M143.929 133.289C138.967 133.289 134.929 129.715 134.929 125.323C134.929 124.694 135.503 124.186 136.214 124.186C136.926 124.186 137.5 124.694 137.5 125.323C137.5 128.46 140.384 131.013 143.929 131.013C144.64 131.013 145.214 131.521 145.214 132.151C145.214 132.78 144.64 133.289 143.929 133.289Z" fill="black"/>
<path d="M151.634 133.297C150.923 133.297 150.348 132.788 150.348 132.159C150.348 131.53 150.923 131.021 151.634 131.021C153.765 131.021 155.5 129.486 155.5 127.599C155.5 126.97 156.074 126.461 156.786 126.461C157.497 126.461 158.071 126.97 158.071 127.599C158.071 130.741 155.184 133.297 151.634 133.297Z" fill="black"/>
<path d="M147.786 136.703C144.949 136.703 142.643 134.661 142.643 132.151C142.643 131.521 143.217 131.013 143.929 131.013C144.64 131.013 145.214 131.521 145.214 132.151C145.214 133.406 146.368 134.427 147.786 134.427C148.497 134.427 149.071 134.935 149.071 135.565C149.071 136.194 148.497 136.703 147.786 136.703Z" fill="black"/>
<path d="M147.786 136.703C147.074 136.703 146.5 136.194 146.5 135.565C146.5 133.054 148.807 131.013 151.643 131.013C152.354 131.013 152.929 131.521 152.929 132.151C152.929 132.78 152.354 133.289 151.643 133.289C150.225 133.289 149.071 134.31 149.071 135.565C149.071 136.194 148.497 136.703 147.786 136.703Z" fill="black"/>
<path d="M170.929 133.288C170.217 133.288 169.643 132.779 169.643 132.15C169.643 131.52 170.217 131.012 170.929 131.012C173.055 131.012 174.786 129.48 174.786 127.598C174.786 126.969 175.36 126.46 176.071 126.46C176.783 126.46 177.357 126.969 177.357 127.598C177.357 130.735 174.473 133.288 170.929 133.288Z" fill="black"/>
<path d="M172.214 125.323C171.503 125.323 170.929 124.815 170.929 124.185C170.929 123.556 171.503 123.048 172.214 123.048C173.632 123.048 174.786 122.027 174.786 120.772C174.786 120.142 175.36 119.634 176.071 119.634C176.783 119.634 177.357 120.142 177.357 120.772C177.357 123.282 175.051 125.323 172.214 125.323Z" fill="black"/>
<path d="M176.071 128.736C175.36 128.736 174.786 128.227 174.786 127.598V120.772C174.786 120.142 175.36 119.634 176.071 119.634C176.783 119.634 177.357 120.142 177.357 120.772V127.598C177.357 128.227 176.783 128.736 176.071 128.736Z" fill="black"/>
<path d="M136.214 126.461C135.503 126.461 134.929 125.953 134.929 125.323V121.91C134.929 121.28 135.503 120.772 136.214 120.772C136.926 120.772 137.5 121.28 137.5 121.91V125.323C137.5 125.953 136.926 126.461 136.214 126.461Z" fill="black"/>
<path d="M160.643 127.03C159.932 127.03 159.357 126.522 159.357 125.892C159.357 125.58 159.068 125.323 158.714 125.323C158.361 125.323 158.071 125.58 158.071 125.892C158.071 126.522 157.497 127.03 156.786 127.03C156.074 127.03 155.5 126.522 155.5 125.892C155.5 124.323 156.941 123.048 158.714 123.048C160.487 123.048 161.929 124.323 161.929 125.892C161.929 126.522 161.354 127.03 160.643 127.03Z" fill="black"/>
<path d="M156.786 128.737C156.074 128.737 155.5 128.229 155.5 127.599V125.892C155.5 125.263 156.074 124.754 156.786 124.754C157.497 124.754 158.071 125.263 158.071 125.892V127.599C158.071 128.229 157.497 128.737 156.786 128.737Z" fill="black"/>
</g>
<mask id="path-98-inside-4" fill="white">
<path fill-rule="evenodd" clip-rule="evenodd" d="M287.108 249.612C286.557 250.006 285.782 249.75 285.574 249.106L268.275 195.519C267.977 194.595 266.67 194.595 266.372 195.519L244.773 262.427C244.564 263.072 245.046 263.734 245.724 263.734H267.368H290.297H323.937C324.909 263.734 325.309 262.486 324.518 261.92L297.792 242.801C297.444 242.552 296.977 242.552 296.629 242.801L287.108 249.612Z"/>
</mask>
<path fill-rule="evenodd" clip-rule="evenodd" d="M287.108 249.612C286.557 250.006 285.782 249.75 285.574 249.106L268.275 195.519C267.977 194.595 266.67 194.595 266.372 195.519L244.773 262.427C244.564 263.072 245.046 263.734 245.724 263.734H267.368H290.297H323.937C324.909 263.734 325.309 262.486 324.518 261.92L297.792 242.801C297.444 242.552 296.977 242.552 296.629 242.801L287.108 249.612Z" fill="#CD9C5E"/>
<path d="M244.773 262.427L247.628 263.348L244.773 262.427ZM297.792 242.801L299.538 240.361L297.792 242.801ZM296.629 242.801L298.374 245.241L296.629 242.801ZM285.574 249.106L282.719 250.028L285.574 249.106ZM287.108 249.612L285.362 247.172L287.108 249.612ZM324.518 261.92L322.773 264.36L324.518 261.92ZM268.275 195.519L271.13 194.597L268.275 195.519ZM265.42 196.441L282.719 250.028L288.429 248.184L271.13 194.597L265.42 196.441ZM247.628 263.348L269.227 196.441L263.517 194.597L241.918 261.505L247.628 263.348ZM267.368 260.734H245.724V266.734H267.368V260.734ZM290.297 260.734H267.368V266.734H290.297V260.734ZM323.937 260.734H290.297V266.734H323.937V260.734ZM296.047 245.241L322.773 264.36L326.264 259.481L299.538 240.361L296.047 245.241ZM288.853 252.052L298.374 245.241L294.883 240.361L285.362 247.172L288.853 252.052ZM241.918 261.505C241.084 264.088 243.01 266.734 245.724 266.734V260.734C247.082 260.734 248.045 262.057 247.628 263.348L241.918 261.505ZM299.538 240.361C298.146 239.366 296.275 239.366 294.883 240.361L298.374 245.241C297.678 245.739 296.743 245.739 296.047 245.241L299.538 240.361ZM282.719 250.028C283.552 252.605 286.651 253.628 288.853 252.052L285.362 247.172C286.464 246.384 288.013 246.896 288.429 248.184L282.719 250.028ZM323.937 266.734C327.827 266.734 329.428 261.744 326.264 259.481L322.773 264.36C321.191 263.229 321.992 260.734 323.937 260.734V266.734ZM271.13 194.597C269.937 190.902 264.71 190.902 263.517 194.597L269.227 196.441C268.631 198.288 266.017 198.288 265.42 196.441L271.13 194.597Z" fill="black" mask="url(#path-98-inside-4)"/>
<path d="M264 227.458L260 224.803L267 202.677L267.5 202.234L275.5 227.458L274 228.344L269 225.688L264 227.458Z" fill="white" stroke="black"/>
<path d="M287 252.682L297 245.602L318 260.648L310 256.223L298 251.355L287 252.682Z" fill="#B68C51"/>
<path d="M270 215.51L274 227.901L275 227.458L270 211.528V212.413V215.51Z" fill="#FDF4F4"/>
<mask id="path-103-inside-5" fill="white">
<path fill-rule="evenodd" clip-rule="evenodd" d="M485.806 191.828C484.239 191.828 482.949 190.465 482.017 189.205C478.58 184.56 466.228 181.122 451.516 181.122C438.659 181.122 427.604 183.748 422.727 187.51C420.428 189.284 417.71 191.828 414.806 191.828C413.702 191.828 412.806 192.723 412.806 193.828V200.534C412.806 201.639 413.702 202.534 414.806 202.534L451.516 202.534L485.806 202.534C486.911 202.534 487.806 201.639 487.806 200.534V193.828C487.806 192.723 486.911 191.828 485.806 191.828Z"/>
</mask>
<path fill-rule="evenodd" clip-rule="evenodd" d="M485.806 191.828C484.239 191.828 482.949 190.465 482.017 189.205C478.58 184.56 466.228 181.122 451.516 181.122C438.659 181.122 427.604 183.748 422.727 187.51C420.428 189.284 417.71 191.828 414.806 191.828C413.702 191.828 412.806 192.723 412.806 193.828V200.534C412.806 201.639 413.702 202.534 414.806 202.534L451.516 202.534L485.806 202.534C486.911 202.534 487.806 201.639 487.806 200.534V193.828C487.806 192.723 486.911 191.828 485.806 191.828Z" fill="#E4B65B"/>
<path d="M414.806 202.534V205.534H414.806L414.806 202.534ZM451.516 202.534V199.534V202.534ZM485.806 202.534V205.534V202.534ZM482.017 189.205L479.605 190.989L482.017 189.205ZM451.516 184.122C458.657 184.122 465.156 184.958 470.216 186.319C472.746 186.999 474.856 187.794 476.483 188.643C478.145 189.509 479.122 190.336 479.605 190.989L484.428 187.42C483.193 185.751 481.338 184.407 479.257 183.322C477.142 182.22 474.599 181.284 471.774 180.524C466.12 179.004 459.086 178.122 451.516 178.122V184.122ZM424.56 189.885C426.493 188.394 429.982 186.919 434.791 185.831C439.527 184.76 445.281 184.122 451.516 184.122V178.122C444.895 178.122 438.692 178.797 433.467 179.979C428.316 181.144 423.839 182.864 420.895 185.135L424.56 189.885ZM415.806 193.828C415.806 194.38 415.359 194.828 414.806 194.828V188.828C412.045 188.828 409.806 191.067 409.806 193.828H415.806ZM415.806 200.534V193.828H409.806V200.534H415.806ZM414.806 199.534C415.359 199.534 415.806 199.982 415.806 200.534H409.806C409.806 203.296 412.045 205.534 414.806 205.534V199.534ZM451.516 199.534L414.806 199.534L414.806 205.534L451.516 205.534V199.534ZM485.806 199.534L451.516 199.534V205.534L485.806 205.534V199.534ZM484.806 200.534C484.806 199.982 485.254 199.534 485.806 199.534V205.534C488.568 205.534 490.806 203.296 490.806 200.534H484.806ZM484.806 193.828V200.534H490.806V193.828H484.806ZM485.806 194.828C485.254 194.828 484.806 194.38 484.806 193.828H490.806C490.806 191.067 488.568 188.828 485.806 188.828V194.828ZM420.895 185.135C419.566 186.16 418.558 187.045 417.368 187.813C416.216 188.556 415.401 188.828 414.806 188.828L414.806 194.828C417.115 194.828 419.112 193.828 420.62 192.855C422.089 191.907 423.59 190.634 424.56 189.885L420.895 185.135ZM479.605 190.989C480.137 191.708 480.879 192.609 481.821 193.349C482.767 194.091 484.119 194.828 485.806 194.828V188.828C485.926 188.828 485.849 188.883 485.526 188.629C485.198 188.372 484.829 187.962 484.428 187.42L479.605 190.989Z" fill="black" mask="url(#path-103-inside-5)"/>
<mask id="path-105-inside-6" fill="white">
<path fill-rule="evenodd" clip-rule="evenodd" d="M510 228.713C509.38 228.713 508.89 228.19 508.629 227.628C507.1 224.329 498.709 221.806 488.587 221.806C477.38 221.806 468.296 224.898 468.296 228.713C468.296 228.713 468.296 228.713 468.296 228.713H465.613C464.508 228.713 463.613 229.608 463.613 230.713V233.62C463.613 234.725 464.508 235.62 465.613 235.62H510C511.105 235.62 512 234.725 512 233.62V230.713C512 229.608 511.105 228.713 510 228.713Z"/>
</mask>
<path fill-rule="evenodd" clip-rule="evenodd" d="M510 228.713C509.38 228.713 508.89 228.19 508.629 227.628C507.1 224.329 498.709 221.806 488.587 221.806C477.38 221.806 468.296 224.898 468.296 228.713C468.296 228.713 468.296 228.713 468.296 228.713H465.613C464.508 228.713 463.613 229.608 463.613 230.713V233.62C463.613 234.725 464.508 235.62 465.613 235.62H510C511.105 235.62 512 234.725 512 233.62V230.713C512 229.608 511.105 228.713 510 228.713Z" fill="#E4B65B"/>
<path d="M488.587 224.806C493.424 224.806 497.759 225.411 500.986 226.358C502.603 226.833 503.853 227.367 504.725 227.894C505.646 228.45 505.884 228.838 505.907 228.889L511.351 226.367C510.611 224.769 509.226 223.603 507.827 222.758C506.38 221.884 504.613 221.17 502.676 220.601C498.794 219.462 493.872 218.806 488.587 218.806V224.806ZM471.296 228.713C471.296 229.045 471.093 228.907 471.771 228.361C472.422 227.837 473.548 227.233 475.205 226.669C478.491 225.55 483.222 224.806 488.587 224.806V218.806C482.746 218.806 477.331 219.607 473.272 220.989C471.257 221.674 469.412 222.558 468.009 223.687C466.634 224.794 465.296 226.473 465.296 228.713H471.296ZM465.613 231.713H468.296V225.713H465.613V231.713ZM466.613 230.713C466.613 231.265 466.165 231.713 465.613 231.713V225.713C462.851 225.713 460.613 227.951 460.613 230.713H466.613ZM466.613 233.62V230.713H460.613V233.62H466.613ZM465.613 232.62C466.165 232.62 466.613 233.068 466.613 233.62H460.613C460.613 236.382 462.851 238.62 465.613 238.62V232.62ZM510 232.62H465.613V238.62H510V232.62ZM509 233.62C509 233.068 509.448 232.62 510 232.62V238.62C512.761 238.62 515 236.382 515 233.62H509ZM509 230.713V233.62H515V230.713H509ZM510 231.713C509.448 231.713 509 231.265 509 230.713H515C515 227.951 512.761 225.713 510 225.713V231.713ZM465.296 228.713C465.296 227.033 466.662 225.713 468.296 225.713V231.713C469.929 231.713 471.296 230.393 471.296 228.713H465.296ZM505.907 228.889C506.341 229.824 507.608 231.713 510 231.713L510 225.713C510.581 225.713 510.974 225.966 511.141 226.111C511.294 226.243 511.342 226.345 511.351 226.367L505.907 228.889Z" fill="black" mask="url(#path-105-inside-6)"/>
<path d="M496.5 226.573L496 224.803L501 225.688L505.5 227.901L507 230.114L509 230.999V233.211H505.5L504.5 231.884L503.5 230.556L502 229.229L499.5 228.344L496.5 226.573Z" fill="#BC9824"/>
<mask id="path-108-inside-7" fill="white">
<path fill-rule="evenodd" clip-rule="evenodd" d="M400.71 140.017C400.71 139.947 400.707 139.877 400.709 139.807C400.709 139.78 400.71 139.752 400.71 139.724C400.71 135.388 392.044 131.873 381.355 131.873C370.665 131.873 362 135.388 362 139.724C362 139.752 362 139.779 362.001 139.807C362.003 139.877 362 139.947 362 140.017V146.582C362 147.134 362.448 147.582 363 147.582H399.71C400.262 147.582 400.71 147.134 400.71 146.582V140.017Z"/>
</mask>
<path fill-rule="evenodd" clip-rule="evenodd" d="M400.71 140.017C400.71 139.947 400.707 139.877 400.709 139.807C400.709 139.78 400.71 139.752 400.71 139.724C400.71 135.388 392.044 131.873 381.355 131.873C370.665 131.873 362 135.388 362 139.724C362 139.752 362 139.779 362.001 139.807C362.003 139.877 362 139.947 362 140.017V146.582C362 147.134 362.448 147.582 363 147.582H399.71C400.262 147.582 400.71 147.134 400.71 146.582V140.017Z" fill="#E0B051"/>
<path d="M400.709 139.807L397.71 139.731L400.709 139.807ZM397.71 139.724C397.71 139.726 397.71 139.728 397.71 139.731L403.708 139.884C403.709 139.831 403.71 139.777 403.71 139.724H397.71ZM381.355 134.873C386.411 134.873 390.85 135.71 393.913 136.952C395.452 137.577 396.499 138.245 397.112 138.833C397.718 139.414 397.71 139.715 397.71 139.724H403.71C403.71 137.565 402.619 135.801 401.265 134.503C399.92 133.213 398.132 132.189 396.168 131.392C392.227 129.793 386.988 128.873 381.355 128.873V134.873ZM365 139.724C365 139.715 364.992 139.414 365.598 138.833C366.211 138.245 367.257 137.577 368.797 136.952C371.86 135.71 376.299 134.873 381.355 134.873V128.873C375.722 128.873 370.483 129.793 366.541 131.392C364.578 132.189 362.79 133.213 361.444 134.503C360.091 135.801 359 137.565 359 139.724H365ZM365 139.731C365 139.728 365 139.726 365 139.724H359C359 139.777 359.001 139.83 359.002 139.883L365 139.731ZM365 146.582V140.017H359V146.582H365ZM363 144.582C364.105 144.582 365 145.477 365 146.582H359C359 148.791 360.791 150.582 363 150.582V144.582ZM399.71 144.582H363V150.582H399.71V144.582ZM397.71 146.582C397.71 145.477 398.605 144.582 399.71 144.582V150.582C401.919 150.582 403.71 148.791 403.71 146.582H397.71ZM397.71 140.017V146.582H403.71V140.017H397.71ZM359.002 139.883C359.001 139.857 359.002 139.843 359.001 139.87C359.001 139.876 359.001 139.882 359.001 139.892C359.001 139.9 359.001 139.912 359.001 139.924C359 139.947 359 139.98 359 140.017H365C365 140.019 365 140.017 365 140.005C365 140 365 139.994 365 139.985C365.001 139.977 365.001 139.965 365.001 139.954C365.002 139.911 365.003 139.827 365 139.731L359.002 139.883ZM397.71 139.731C397.707 139.827 397.708 139.911 397.709 139.954C397.709 139.965 397.709 139.976 397.709 139.985C397.709 139.994 397.709 140 397.71 140.005C397.71 140.017 397.71 140.019 397.71 140.017H403.71C403.71 139.98 403.709 139.947 403.709 139.924C403.709 139.912 403.709 139.901 403.709 139.892C403.708 139.883 403.708 139.876 403.708 139.87C403.708 139.844 403.708 139.857 403.708 139.884L397.71 139.731Z" fill="black" mask="url(#path-108-inside-7)"/>
<path d="M463.5 186.746L452.5 183.648L466 184.533L476 187.631L479.5 190.286L482 193.384L485 194.269V200.022H480.5V197.367L478 195.154L473.5 194.269L470 190.286L463.5 186.746Z" fill="#BC9824"/>
<path d="M393 137.626L388 134.97H389L396 137.183L398 139.396V145.149L397.5 144.706L397 143.378L396.5 141.166L395.5 139.396L393 137.626Z" fill="#BC9824"/>
<defs>
<clipPath id="clip0">
<rect width="82.2857" height="72.8272" fill="white" transform="translate(118.857 111.668)"/>
</clipPath>
</defs>
</svg>
